<?xml version="1.0" encoding="UTF-8" standalone="no"?>
<!-- Created with Inkscape (http://www.inkscape.org/) -->

<svg
   width="207.21199mm"
   height="106.64716mm"
   viewBox="0 0 207.21199 106.64716"
   version="1.1"
   id="svg5"
   inkscape:version="1.1.2 (0a00cf5339, 2022-02-04)"
   sodipodi:docname="logo.svg"
   xmlns:inkscape="http://www.inkscape.org/namespaces/inkscape"
   xmlns:sodipodi="http://sodipodi.sourceforge.net/DTD/sodipodi-0.dtd"
   xmlns="http://www.w3.org/2000/svg"
   xmlns:svg="http://www.w3.org/2000/svg">
  <sodipodi:namedview
     id="namedview7"
     pagecolor="#ffffff"
     bordercolor="#666666"
     borderopacity="1.0"
     inkscape:pageshadow="2"
     inkscape:pageopacity="0.0"
     inkscape:pagecheckerboard="0"
     inkscape:document-units="mm"
     showgrid="false"
     inkscape:lockguides="false"
     inkscape:zoom="1.3715585"
     inkscape:cx="367.82974"
     inkscape:cy="177.17072"
     inkscape:window-width="1920"
     inkscape:window-height="1048"
     inkscape:window-x="1920"
     inkscape:window-y="0"
     inkscape:window-maximized="1"
     inkscape:current-layer="layer1" />
  <defs
     id="defs2" />
  <g
     inkscape:label="Layer 1"
     inkscape:groupmode="layer"
     id="layer1"
     transform="translate(-1.7648673,-1.2589754)">
    <g
       id="g333"
       transform="matrix(1.7708638,0,0,1.7708638,-11.021299,-2.5638657)">
      <path
         style="fill:#5999d3;stroke-width:0.352778"
         d="m 16.155216,60.663836 c -0.71526,-3.576299 0.423772,-6.033633 4.813912,-10.385471 2.671562,-2.648257 9.958486,-8.294621 10.704635,-8.294621 0.108925,0 0.636109,-0.311929 1.17152,-0.693173 2.158033,-1.536657 16.645872,-8.990229 21.889611,-11.26157 1.067153,-0.462241 2.943543,-1.295272 4.169752,-1.85118 1.22621,-0.555909 2.306483,-1.010743 2.400604,-1.010743 0.09412,0 0.83711,-0.293105 1.651081,-0.651344 0.813975,-0.358239 3.067452,-1.258569 5.00773,-2.000734 3.901289,-1.49226 4.854597,-2.034337 2.776665,-1.578885 -4.152205,0.910102 -30.5416,3.917791 -40.3475,4.598542 -7.211051,0.50061 -19.806369,0.297503 -21.4492627,-0.345883 -1.6251366,-0.63643 -1.3323074,-1.394695 0.9910717,-2.566321 1.898093,-0.957164 2.091075,-0.980289 9.522079,-1.141008 27.367084,-0.5919 76.678879,-8.252087 96.404266,-14.975619 2.72384,-0.9284367 3.3241,-1.0174351 5.01075,-0.7429249 2.06209,0.3356133 3.35999,0.8832772 3.35999,1.4177863 0,0.6148405 -3.62207,2.4098046 -7.38387,3.6591786 -2.05075,0.681095 -7.37988,2.192229 -11.84252,3.358073 -7.360285,1.922841 -19.038088,5.581773 -25.400001,7.958421 -1.358195,0.507386 -3.104445,1.142741 -3.880556,1.411899 -3.114047,1.079963 -4.619431,1.633382 -5.291667,1.945358 -0.388056,0.180091 -1.737431,0.738523 -2.998611,1.240961 -1.261181,0.502437 -2.610556,1.049161 -2.998612,1.214941 -0.388055,0.165781 -2.134305,0.893141 -3.880555,1.616356 -7.322814,3.032767 -20.535799,9.548578 -25.752779,12.699649 -8.785026,5.306177 -15.406122,11.130213 -17.366487,15.275881 l -1.055366,2.231827 z"
         id="path341" />
      <path
         style="fill:#487caa;stroke-width:0.352778"
         d="M 7.6834586,25.111499 C 7.6063914,24.980886 7.4355729,24.074455 7.3038619,23.097206 7.0201823,20.992403 7.3288809,20.599528 10.296881,19.288028 26.207374,12.257501 84.306567,2.799216 112.23767,2.6925294 c 7.44532,-0.028439 10.68423,0.3787519 11.07309,1.392089 0.1047,0.2728486 0.29493,1.284351 0.42273,2.2477825 l 0.23237,1.7516937 -1.36617,-0.4244805 C 120.78495,7.0957641 105.29398,7.1277751 98.479341,7.7094574 63.509162,10.694431 19.102572,19.045026 9.4194146,24.457046 8.5417059,24.947606 7.7605257,25.24211 7.6834586,25.111499 Z"
         id="path335" />
    </g>
  </g>
</svg>
